<mxfile host="app.diagrams.net" modified="2024-04-13T11:41:00.209Z" agent="Mozilla/5.0 (Windows NT 10.0; Win64; x64) AppleWebKit/537.36 (KHTML, like Gecko) Chrome/123.0.0.0 Safari/537.36" etag="A0QiIDao4yl7G-NBEdWx" version="24.2.5" type="google">
  <diagram name="Page-1" id="7i0HS5fh59K__IMDZCdu">
    <mxGraphModel grid="1" page="1" gridSize="10" guides="1" tooltips="1" connect="1" arrows="1" fold="1" pageScale="1" pageWidth="827" pageHeight="1169" math="0" shadow="0">
      <root>
        <mxCell id="0" />
        <mxCell id="1" parent="0" />
        <mxCell id="WhQkZwucECTdEOtA8K1i-10" value="Buyer&amp;nbsp;&lt;div style=&quot;font-size: 18px;&quot;&gt;Requests&lt;/div&gt;" style="edgeStyle=orthogonalEdgeStyle;rounded=0;orthogonalLoop=1;jettySize=auto;html=1;entryX=0;entryY=0.5;entryDx=0;entryDy=0;startArrow=classic;startFill=1;fontSize=18;strokeWidth=2;labelBackgroundColor=none;align=right;exitX=1;exitY=0.75;exitDx=0;exitDy=0;" edge="1" parent="1" source="WhQkZwucECTdEOtA8K1i-6" target="WhQkZwucECTdEOtA8K1i-9">
          <mxGeometry x="0.0237" y="-7" relative="1" as="geometry">
            <mxPoint as="offset" />
          </mxGeometry>
        </mxCell>
        <UserObject label="User Interface" link="https://judewoodprofessional.atlassian.net/wiki/x/CQAW" id="WhQkZwucECTdEOtA8K1i-6">
          <mxCell style="rounded=1;whiteSpace=wrap;html=1;fillColor=#e1d5e7;strokeColor=#9673a6;fontSize=18;strokeWidth=2;labelBackgroundColor=none;" vertex="1" parent="1">
            <mxGeometry x="-696" y="-790" width="120" height="60" as="geometry" />
          </mxCell>
        </UserObject>
        <mxCell id="WhQkZwucECTdEOtA8K1i-12" value="Purchased&amp;nbsp;&lt;div style=&quot;font-size: 18px;&quot;&gt;Items&amp;nbsp;&lt;/div&gt;" style="edgeStyle=orthogonalEdgeStyle;rounded=0;orthogonalLoop=1;jettySize=auto;html=1;entryX=0;entryY=0.75;entryDx=0;entryDy=0;startArrow=none;startFill=0;fontSize=18;strokeWidth=2;labelBackgroundColor=none;align=left;" edge="1" parent="1" source="WhQkZwucECTdEOtA8K1i-9" target="WhQkZwucECTdEOtA8K1i-11">
          <mxGeometry relative="1" as="geometry" />
        </mxCell>
        <UserObject label="Purchasing&lt;div style=&quot;font-size: 18px;&quot;&gt;Processing&lt;/div&gt;" link="https://judewoodprofessional.atlassian.net/wiki/x/JoAY" id="WhQkZwucECTdEOtA8K1i-9">
          <mxCell style="rounded=1;whiteSpace=wrap;html=1;fillColor=#e1d5e7;strokeColor=#9673a6;fontSize=18;strokeWidth=2;labelBackgroundColor=none;" vertex="1" parent="1">
            <mxGeometry x="-450" y="-690" width="120" height="60" as="geometry" />
          </mxCell>
        </UserObject>
        <mxCell id="tyQ9Ip8bSsovpUT6uGbB-12" value="User Dashboards" style="edgeStyle=orthogonalEdgeStyle;rounded=0;orthogonalLoop=1;jettySize=auto;html=1;entryX=0.5;entryY=1;entryDx=0;entryDy=0;strokeWidth=2;fontSize=18;labelBackgroundColor=none;" edge="1" parent="1" source="WhQkZwucECTdEOtA8K1i-11" target="WhQkZwucECTdEOtA8K1i-6">
          <mxGeometry x="0.005" y="10" relative="1" as="geometry">
            <Array as="points">
              <mxPoint x="-140" y="-580" />
              <mxPoint x="-636" y="-580" />
            </Array>
            <mxPoint as="offset" />
          </mxGeometry>
        </mxCell>
        <UserObject label="&lt;div style=&quot;font-size: 18px;&quot;&gt;&lt;span style=&quot;background-color: initial;&quot;&gt;Reporting&lt;/span&gt;&lt;br&gt;&lt;/div&gt;" link="https://judewoodprofessional.atlassian.net/wiki/spaces/SD1/pages/2588673/Reporting" id="WhQkZwucECTdEOtA8K1i-11">
          <mxCell style="rounded=1;whiteSpace=wrap;html=1;fillColor=#e1d5e7;strokeColor=#9673a6;fontSize=18;strokeWidth=2;labelBackgroundColor=none;" vertex="1" parent="1">
            <mxGeometry x="-200" y="-790" width="120" height="60" as="geometry" />
          </mxCell>
        </UserObject>
        <mxCell id="bnqMVER4PhRWbPe9dfjj-3" value="&lt;b&gt;Key&lt;/b&gt;" style="rounded=1;whiteSpace=wrap;html=1;labelPosition=center;verticalLabelPosition=middle;align=center;verticalAlign=top;fontSize=18;labelBackgroundColor=none;strokeWidth=2;" vertex="1" parent="1">
          <mxGeometry x="-820" y="-990" width="240" height="120" as="geometry" />
        </mxCell>
        <mxCell id="bnqMVER4PhRWbPe9dfjj-4" value="&lt;font style=&quot;font-size: 18px;&quot; color=&quot;#000000&quot;&gt;Website&lt;/font&gt;&lt;div style=&quot;font-size: 18px;&quot;&gt;&lt;font style=&quot;font-size: 18px;&quot; color=&quot;#000000&quot;&gt;Vsitor&lt;/font&gt;&lt;/div&gt;" style="shape=actor;whiteSpace=wrap;html=1;fillColor=#dae8fc;strokeColor=#6c8ebf;labelPosition=center;verticalLabelPosition=bottom;align=center;verticalAlign=top;fontSize=18;strokeWidth=2;labelBackgroundColor=none;" vertex="1" parent="1">
          <mxGeometry x="-790" y="-980" width="40" height="60" as="geometry" />
        </mxCell>
        <mxCell id="bnqMVER4PhRWbPe9dfjj-6" value="module" style="rounded=1;whiteSpace=wrap;html=1;fillColor=#e1d5e7;strokeColor=#9673a6;fontSize=18;strokeWidth=2;labelBackgroundColor=none;" vertex="1" parent="1">
          <mxGeometry x="-720" y="-950" width="120" height="60" as="geometry" />
        </mxCell>
        <mxCell id="tyQ9Ip8bSsovpUT6uGbB-8" value="Listed&amp;nbsp;&lt;div&gt;Items&lt;/div&gt;" style="edgeStyle=orthogonalEdgeStyle;rounded=0;orthogonalLoop=1;jettySize=auto;html=1;entryX=0;entryY=0.25;entryDx=0;entryDy=0;strokeWidth=2;startArrow=none;startFill=0;fontSize=18;labelBackgroundColor=none;align=left;" edge="1" parent="1" source="tyQ9Ip8bSsovpUT6uGbB-1" target="WhQkZwucECTdEOtA8K1i-11">
          <mxGeometry relative="1" as="geometry" />
        </mxCell>
        <UserObject label="Selling&lt;div style=&quot;font-size: 18px;&quot;&gt;Processing&lt;/div&gt;" link="https://judewoodprofessional.atlassian.net/wiki/spaces/SD1/pages/1474843/Selling+Processing" id="tyQ9Ip8bSsovpUT6uGbB-1">
          <mxCell style="rounded=1;whiteSpace=wrap;html=1;fillColor=#e1d5e7;strokeColor=#9673a6;fontSize=18;strokeWidth=2;labelBackgroundColor=none;" vertex="1" parent="1">
            <mxGeometry x="-450" y="-880" width="120" height="60" as="geometry" />
          </mxCell>
        </UserObject>
        <mxCell id="tyQ9Ip8bSsovpUT6uGbB-3" value="&lt;div style=&quot;font-size: 18px;&quot;&gt;&lt;br style=&quot;font-size: 18px;&quot;&gt;&lt;/div&gt;&lt;div style=&quot;font-size: 18px;&quot;&gt;&lt;br style=&quot;font-size: 18px;&quot;&gt;&lt;/div&gt;" style="edgeStyle=orthogonalEdgeStyle;rounded=0;orthogonalLoop=1;jettySize=auto;html=1;entryX=0;entryY=0.5;entryDx=0;entryDy=0;startArrow=classic;startFill=1;fontSize=18;strokeWidth=2;labelBackgroundColor=none;exitX=1;exitY=0.25;exitDx=0;exitDy=0;" edge="1" parent="1" source="WhQkZwucECTdEOtA8K1i-6" target="tyQ9Ip8bSsovpUT6uGbB-1">
          <mxGeometry relative="1" as="geometry">
            <mxPoint x="-566" y="-750" as="sourcePoint" />
            <mxPoint x="-440" y="-650" as="targetPoint" />
          </mxGeometry>
        </mxCell>
        <mxCell id="tyQ9Ip8bSsovpUT6uGbB-4" value="Seller&amp;nbsp;&lt;div style=&quot;font-size: 18px;&quot;&gt;requests&lt;/div&gt;" style="edgeLabel;html=1;align=right;verticalAlign=middle;resizable=0;points=[];labelBackgroundColor=none;fontSize=18;" connectable="0" vertex="1" parent="tyQ9Ip8bSsovpUT6uGbB-3">
          <mxGeometry x="0.127" y="3" relative="1" as="geometry">
            <mxPoint x="-4" y="5" as="offset" />
          </mxGeometry>
        </mxCell>
        <mxCell id="tyQ9Ip8bSsovpUT6uGbB-9" value="&lt;font style=&quot;font-size: 18px;&quot; color=&quot;#000000&quot;&gt;Website&lt;/font&gt;&lt;div style=&quot;font-size: 18px;&quot;&gt;&lt;font style=&quot;font-size: 18px;&quot; color=&quot;#000000&quot;&gt;Vsitor&lt;/font&gt;&lt;/div&gt;" style="shape=actor;whiteSpace=wrap;html=1;fillColor=#dae8fc;strokeColor=#6c8ebf;labelPosition=center;verticalLabelPosition=bottom;align=center;verticalAlign=top;fontSize=18;strokeWidth=2;labelBackgroundColor=none;" vertex="1" parent="1">
          <mxGeometry x="-810" y="-790" width="40" height="60" as="geometry" />
        </mxCell>
        <mxCell id="tyQ9Ip8bSsovpUT6uGbB-10" style="edgeStyle=orthogonalEdgeStyle;rounded=0;orthogonalLoop=1;jettySize=auto;html=1;strokeWidth=2;startArrow=classic;startFill=1;fontSize=18;labelBackgroundColor=none;" edge="1" parent="1" source="tyQ9Ip8bSsovpUT6uGbB-9" target="WhQkZwucECTdEOtA8K1i-6">
          <mxGeometry relative="1" as="geometry">
            <mxPoint x="-320" y="-840" as="sourcePoint" />
            <mxPoint x="-190" y="-765" as="targetPoint" />
          </mxGeometry>
        </mxCell>
        <mxCell id="YFDi_EJo6m9hiwI_MBTn-1" value="&lt;b&gt;Description&lt;/b&gt;&lt;div&gt;&lt;br&gt;&lt;div&gt;&lt;div&gt;Internet marketplace that connects sellers of items with buyers of those items.&amp;nbsp;&lt;/div&gt;&lt;div&gt;Sellers list the items they want to sell and delivery options. The seller arranges delivery of purchased items.&lt;/div&gt;&lt;div&gt;The marketplace system facilitates and records these transactions.&amp;nbsp;&lt;/div&gt;&lt;/div&gt;&lt;/div&gt;&lt;div&gt;&lt;br&gt;&lt;/div&gt;" style="rounded=1;whiteSpace=wrap;html=1;labelPosition=center;verticalLabelPosition=middle;align=left;verticalAlign=top;fontSize=18;labelBackgroundColor=none;strokeWidth=2;" vertex="1" parent="1">
          <mxGeometry x="-820" y="-1150" width="760" height="150" as="geometry" />
        </mxCell>
      </root>
    </mxGraphModel>
  </diagram>
</mxfile>
